<svg xmlns="http://www.w3.org/2000/svg" viewBox="0 0 600 900" role="img" aria-labelledby="t d"><title id="t">Half Baked Harvest Super Simple</title><desc id="d">Original BiteSparks editorial artwork, not the publisher cover.</desc><defs><linearGradient id="g" x2="1" y2="1"><stop stop-color="#fff8ed"/><stop offset="1" stop-color="#f2dfc4"/></linearGradient></defs><rect width="600" height="900" rx="28" fill="url(#g)"/><circle cx="300" cy="490" r="175" fill="#fff" stroke="#e85d25" stroke-width="10"/><circle cx="300" cy="490" r="135" fill="#293b2d"/><g fill="#e85d25"><circle cx="250" cy="445" r="38"/><circle cx="350" cy="535" r="42"/><circle cx="330" cy="420" r="30"/></g><g fill="#f4c15d"><circle cx="215" cy="535" r="26"/><circle cx="385" cy="475" r="24"/></g><path d="M210 385c35-45 65-48 88-8-45 8-70 20-88 8zm180 190c-30 45-62 52-90 16 44-12 68-27 90-16z" fill="#7ca66a"/><text x="300" y="95" text-anchor="middle" font-family="Arial,sans-serif" font-size="22" font-weight="700" fill="#e85d25" letter-spacing="4">BITESPARKS SELECTION</text><text x="300" y="165" text-anchor="middle" font-family="Georgia,serif" font-size="48" font-weight="700" fill="#18201b">Half Baked Harvest</text><text x="300" y="220" text-anchor="middle" font-family="Georgia,serif" font-size="58" font-weight="700" fill="#18201b">Super Simple</text><text x="300" y="805" text-anchor="middle" font-family="Arial,sans-serif" font-size="26" fill="#18201b">Tieghan Gerard</text><text x="300" y="850" text-anchor="middle" font-family="Arial,sans-serif" font-size="17" fill="#6b6259">Original editorial artwork • not publisher cover</text></svg>