<svg xmlns="http://www.w3.org/2000/svg" viewBox="0 0 1200 675" role="img" aria-labelledby="title desc"><title id="title">Breakfast Casserole</title><desc id="desc">Original BiteSparks illustration of a golden egg, cheese, pepper, and potato breakfast casserole.</desc><defs><linearGradient id="bg" x1="0" y1="0" x2="1" y2="1"><stop stop-color="#f7ead8"/><stop offset="1" stop-color="#e7c79c"/></linearGradient><linearGradient id="dish" x1="0" y1="0" x2="0" y2="1"><stop stop-color="#fffdf8"/><stop offset="1" stop-color="#d9d3c9"/></linearGradient><linearGradient id="food" x1="0" y1="0" x2="0" y2="1"><stop stop-color="#f8c64e"/><stop offset=".55" stop-color="#e89b29"/><stop offset="1" stop-color="#c97520"/></linearGradient><filter id="shadow"><feDropShadow dx="0" dy="18" stdDeviation="18" flood-opacity=".22"/></filter></defs><rect width="1200" height="675" fill="url(#bg)"/><ellipse cx="600" cy="566" rx="430" ry="62" fill="#7a4c2d" opacity=".18"/><g filter="url(#shadow)" transform="translate(150 105)"><path d="M78 84h744q58 0 66 56l42 300q8 57-50 57H64q-58 0-50-57l42-300q8-56 22-56z" fill="url(#dish)"/><path d="M95 112h710q36 0 42 35l34 236q5 36-34 36H53q-39 0-34-36l34-236q6-35 42-35z" fill="url(#food)"/><path d="M68 142h758l-7 48H61z" fill="#ffd86c" opacity=".58"/><g fill="#fff0a4" opacity=".9"><ellipse cx="180" cy="205" rx="55" ry="22"/><ellipse cx="390" cy="170" rx="68" ry="24"/><ellipse cx="610" cy="220" rx="64" ry="23"/><ellipse cx="735" cy="165" rx="47" ry="19"/></g><g fill="#c83f2b"><rect x="138" y="260" width="58" height="38" rx="8" transform="rotate(-8 167 279)"/><rect x="480" y="245" width="55" height="42" rx="8" transform="rotate(12 507 266)"/><rect x="690" y="305" width="62" height="39" rx="8" transform="rotate(-12 721 324)"/></g><g fill="#6d8b45"><circle cx="265" cy="230" r="18"/><circle cx="330" cy="320" r="15"/><circle cx="585" cy="310" r="19"/><circle cx="780" cy="250" r="16"/></g><g fill="#b96828"><rect x="210" y="340" width="70" height="48" rx="12"/><rect x="405" y="300" width="75" height="52" rx="12"/><rect x="625" y="350" width="70" height="45" rx="12"/></g><path d="M19 382h862l-6 42H25z" fill="#b76422" opacity=".34"/><path d="M-8 84h920" stroke="#fff" stroke-width="18" stroke-linecap="round" opacity=".75"/></g><g fill="#4f6f3b"><path d="M104 116q45-54 89-5-49 15-89 5z"/><path d="M106 118q-24-61-75-35 34 39 75 35z"/><path d="M103 116q6-67 58-65-14 52-58 65z"/></g><g fill="#fff" opacity=".72"><circle cx="1030" cy="120" r="50"/><circle cx="1100" cy="168" r="27"/></g></svg>